<svg width="22" height="19" viewBox="0 0 22 19" fill="none" xmlns="http://www.w3.org/2000/svg">
<path d="M3.06367 3.08571L3.0637 3.08574L3.06857 3.08093C3.82619 2.33181 4.79929 1.95983 5.77086 1.95983C6.74243 1.95983 7.71553 2.33181 8.47314 3.08093L8.47501 3.08277L10.6307 5.19203L10.9822 5.53598L11.3319 5.19019L13.4876 3.05873C14.9782 1.58483 17.4248 1.58822 18.8897 3.05637L18.8921 3.05873C19.6104 3.76898 20.0236 4.70859 20.0236 5.72276C20.0236 6.74279 19.6288 7.67797 18.897 8.38201L18.897 8.38197L18.8917 8.38727L10.9799 16.2315L3.0711 8.41149C2.34777 7.6753 1.9371 6.73349 1.9371 5.74496C1.9371 4.72493 2.33187 3.78974 3.06367 3.08571ZM10.6288 17.2907L10.9808 17.6388L11.3324 17.2902L19.5931 9.09997C20.5212 8.2057 21.0236 7.01052 21.0236 5.72276C21.0236 4.42842 20.4941 3.23704 19.5964 2.34882C17.738 0.487735 14.6616 0.491524 12.7845 2.34764L10.9785 4.13331L9.17625 2.36984C9.17594 2.36954 9.17563 2.36923 9.17532 2.36892C8.22651 1.43124 6.99944 0.959831 5.77086 0.959831C4.54292 0.959831 3.3165 1.43075 2.3679 2.36744C1.43963 3.26174 0.937101 4.45705 0.937101 5.74496C0.937101 7.02006 1.46865 8.20876 2.36063 9.11523L2.3606 9.11526L2.36547 9.12008L10.6288 17.2907ZM19.9475 2.03741L19.9493 2.03914C22.0159 4.06237 22.0185 7.38257 19.9475 9.43032L10.9804 18.2968L2.0393 9.45616C2.03872 9.45557 2.03813 9.45498 2.03754 9.45438C1.05163 8.45833 0.5 7.14158 0.5 5.74496C0.5 4.34306 1.03283 3.02898 2.03566 2.0374L2.03566 2.03741L2.03742 2.03565C4.08643 -0.0106296 7.45279 -0.0131433 9.52677 2.05787L9.52852 2.0596L10.6288 3.14754L10.9839 3.49868L11.3355 3.14397L12.4339 2.03566C14.5072 -0.0124666 17.875 -0.0118871 19.9475 2.03741Z" fill="black" stroke="black"/>
</svg>
